<?xml version="1.0" encoding="utf-8"?>
<!-- Generator: Adobe Illustrator 26.5.0, SVG Export Plug-In . SVG Version: 6.00 Build 0)  -->
<svg version="1.1" id="Layer_1" xmlns="http://www.w3.org/2000/svg" xmlns:xlink="http://www.w3.org/1999/xlink" x="0px" y="0px"
	 viewBox="0 0 300 300" style="enable-background:new 0 0 300 300;" xml:space="preserve">
<style type="text/css">
	.st0{fill:#FFFFFF;}
</style>
<g>
	<path class="st0" d="M150,3C68.8,3,3,68.8,3,150c0,81.2,65.8,147,147,147c81.2,0,147-65.8,147-147C297,68.8,231.2,3,150,3z
		 M133.9,217.4c16.1-6.6,29.3-18.8,37.2-34.1h30.8L183,150.7l-4.3,7.5l-9.6,16.7l0,0l-4.3,7.9l-2.1,3.3c-6,9.5-14,17.3-23.6,22.8
		c-9.6,5.5-20.7,8.6-32.7,8.6c-0.4,0-0.9,0-1.3,0c-1,0-2-0.1-3.1-0.1c-35.2-2.3-63-31.5-63-67.3c0-37.2,30.2-67.4,67.4-67.4
		c22.2,0,41.9,10.7,54.2,27.3l-21.1,36.6c-1.7-16.7-15.9-29.8-33.1-29.8C88,116.7,73,131.6,73,150c0,18.4,14.9,33.3,33.3,33.3
		c6.9,0,13.2-2.1,18.5-5.6c2.3-1.6,4.4-3.4,6.3-5.5c1.7-1.9,3.2-4,4.4-6.3c0.9-1.7,2.3-3.9,3.1-5.8l5.2-9.6h0v-0.1l20.2-35.2l3-5.3
		l11.2-19.3l4.7-8.1l9.4,16.3l7,12l61.6,106.5L133.9,217.4L133.9,217.4z"/>
</g>
</svg>
