<?xml version="1.0" encoding="iso-8859-1"?>
<!-- Generator: Adobe Illustrator 26.2.1, SVG Export Plug-In . SVG Version: 6.00 Build 0)  -->
<svg version="1.1" id="Layer_1" xmlns="http://www.w3.org/2000/svg" xmlns:xlink="http://www.w3.org/1999/xlink" x="0px" y="0px"
	 viewBox="0 0 300 300" style="enable-background:new 0 0 300 300;" xml:space="preserve">
<g>
	<linearGradient id="SVGID_1_" gradientUnits="userSpaceOnUse" x1="2.9991" y1="150" x2="297.0009" y2="150">
		<stop  offset="0" style="stop-color:#93478D"/>
		<stop  offset="1" style="stop-color:#5E5FA7"/>
	</linearGradient>
	<path style="fill:url(#SVGID_1_);" d="M150.007,3C68.813,3,2.999,68.816,2.999,150.013C2.999,231.191,68.813,297,150.007,297
		c81.179,0,146.994-65.809,146.994-146.987C297.001,68.816,231.186,3,150.007,3z M133.922,217.41
		c16.084-6.587,29.29-18.759,37.191-34.104h30.813l-18.894-32.644l-4.339,7.489l-9.643,16.656l-0.014,0.03l-4.337,7.855
		l-2.074,3.284c-5.975,9.462-14.037,17.314-23.616,22.795c-9.574,5.498-20.664,8.64-32.653,8.64c-0.45,0-0.895,0-1.346-0.025
		c-1.026,0-2.048-0.058-3.059-0.116c-35.179-2.273-63.007-31.525-63.007-67.256c0-37.248,30.189-67.415,67.412-67.415
		c22.206,0,41.917,10.742,54.182,27.335l-21.075,36.559c-1.748-16.722-15.935-29.791-33.107-29.791
		c-18.374,0-33.311,14.937-33.311,33.313c0,18.353,14.937,33.293,33.311,33.293c6.851,0,13.219-2.09,18.523-5.646
		c2.335-1.561,4.449-3.412,6.303-5.495c1.724-1.915,3.205-4.033,4.424-6.291c0.95-1.734,2.276-3.932,3.096-5.789l5.171-9.603h0.035
		v-0.059l20.218-35.177l3.039-5.264l11.163-19.274l4.705-8.11l9.411,16.255l6.97,12.034l61.64,106.523H133.922z"/>
</g>
</svg>
